REM GENRE "Psychedelic Rock"
REM DATE 1968
REM DISCID 4D09F206
REM COMMENT "ExactAudioCopy v0.99pb4"
PERFORMER "Graffiti"
TITLE "Graffiti"
FILE "Graffiti - Graffiti.wav" WAVE
  TRACK 01 AUDIO
    TITLE "Father Protector"
    PERFORMER "Graffiti"
    INDEX 01 00:00:00
  TRACK 02 AUDIO
    TITLE "The Capture Of Me_Life Blood"
    PERFORMER "Graffiti"
    INDEX 00 04:14:10
    INDEX 01 04:15:62
  TRACK 03 AUDIO
    TITLE "Jingle Jangle Woman"
    PERFORMER "Graffiti"
    INDEX 00 13:59:32
    INDEX 01 14:01:12
  TRACK 04 AUDIO
    TITLE "NewLife_GirlOnFire_ColdWater_LoveInSpite"
    PERFORMER "Graffiti"
    INDEX 00 19:09:68
    INDEX 01 19:11:37
  TRACK 05 AUDIO
    TITLE "Ugly Mascara"
    PERFORMER "Graffiti"
    INDEX 00 34:24:60
    INDEX 01 34:26:37
  TRACK 06 AUDIO
    TITLE "He's Got The Knack"
    PERFORMER "Graffiti"
    INDEX 00 39:43:61
    INDEX 01 39:45:37
